<svg data-v-423bf9ae="" xmlns="http://www.w3.org/2000/svg" viewBox="0 0 99.01611976724648 60" class="font"><!----><!----><!----><g data-v-423bf9ae="" id="ca502f48-e8b8-4fd2-a914-40b3cad084ae" fill="white" transform="matrix(5.602240876404433,0,0,5.602240876404433,-2.5210086679169024,-0.7282918832654595)"><path d="M3.39 7.49L3.39 7.49C3.39 7.98 3.01 8.33 2.53 8.33L0.76 8.33C0.67 8.33 0.60 8.40 0.60 8.50C0.60 8.58 0.67 8.65 0.76 8.65L2.53 8.65C3.18 8.65 3.71 8.15 3.71 7.49L3.71 0.49C3.71 0.41 3.64 0.34 3.54 0.34C3.46 0.34 3.39 0.41 3.39 0.49ZM0.62 10.65L0.62 10.65L2.59 10.65C4.33 10.65 5.71 9.23 5.71 7.49L5.71 0.49C5.71 0.41 5.64 0.34 5.54 0.34C5.46 0.34 5.39 0.41 5.39 0.49L5.39 7.49C5.39 9.04 4.16 10.33 2.59 10.33L0.62 10.33C0.52 10.33 0.45 10.40 0.45 10.50C0.45 10.58 0.52 10.65 0.62 10.65ZM18.12 3.86L18.12 3.86C17.40 1.64 15.27 0.13 12.94 0.13C9.77 0.13 7.59 2.39 7.59 5.47C7.59 8.57 9.77 10.84 12.94 10.84C15.27 10.84 17.40 9.34 18.12 7.08C18.14 7 18.09 6.90 18.00 6.87C17.91 6.85 17.82 6.89 17.79 6.99C17.12 9.10 15.15 10.50 12.94 10.50C9.97 10.50 7.91 8.39 7.91 5.47C7.91 2.56 9.97 0.46 12.94 0.46C15.15 0.46 17.12 1.86 17.79 3.96C17.82 4.06 17.91 4.10 18.00 4.07C18.09 4.06 18.14 3.95 18.12 3.86ZM10.14 7.11L10.14 7.11C10.71 8.12 11.77 8.76 12.94 8.76C14.74 8.76 16.17 7.27 16.17 5.47C16.17 3.70 14.74 2.20 12.94 2.20C11.77 2.20 10.71 2.83 10.14 3.84C10.09 3.92 10.12 4.02 10.19 4.07C10.28 4.12 10.39 4.09 10.43 4.00C10.93 3.09 11.89 2.52 12.94 2.52C14.56 2.52 15.83 3.86 15.83 5.47C15.83 7.08 14.56 8.43 12.94 8.43C11.89 8.43 10.93 7.85 10.43 6.94C10.39 6.87 10.28 6.85 10.19 6.89C10.12 6.93 10.09 7.04 10.14 7.11Z"></path></g><!----><!----></svg>